# xmcd CD database file
#
# Track frame offsets:
#	150
#	21075
#	42950
#
# Disc length: 848 seconds
#
# Revision: 2
# Processed by: cddbd v1.5PL3 Copyright (c) Steve Scherf et al.
# Submitted via: CDex 1.50beta9
#
DISCID=1b034e03
DTITLE=工藤静香 - 激情
DYEAR=1996
DGENRE=J-POP
TTITLE0=激情
TTITLE1=長い髪
TTITLE2=激情(Original Karaoke)
EXTD=YEAR: 1996
EXTT0=
EXTT1=
EXTT2=
PLAYORDER=
